<?xml version="1.0" standalone="no"?>
<!DOCTYPE svg PUBLIC "-//W3C//DTD SVG 20010904//EN"
 "http://www.w3.org/TR/2001/REC-SVG-20010904/DTD/svg10.dtd">
<svg version="1.0" xmlns="http://www.w3.org/2000/svg"
 width="1042.000000pt" height="277.000000pt" viewBox="0 0 1042.000000 277.000000"
 preserveAspectRatio="xMidYMid meet">

<g transform="translate(0.000000,277.000000) scale(0.100000,-0.100000)"
fill="#000000" stroke="none">
<path d="M1792 2740 c-244 -44 -443 -197 -553 -425 -89 -183 -94 -419 -15
-615 48 -117 107 -187 430 -510 l316 -315 -76 -76 -76 -76 -36 18 c-44 23 -71
24 -117 5 -66 -28 -95 -119 -59 -188 l16 -31 -76 -76 -76 -76 -303 303 c-166
166 -305 302 -309 302 -15 0 -32 -115 -32 -220 0 -223 79 -399 247 -556 91
-85 160 -127 274 -168 84 -30 95 -31 243 -31 169 0 225 12 349 75 184 92 332
275 387 480 25 90 25 291 0 379 -22 81 -64 175 -107 238 -17 26 -176 193 -353
371 l-321 322 76 76 76 76 31 -16 c69 -36 160 -7 188 59 19 45 18 73 -4 115
l-18 35 75 78 76 77 307 -307 306 -306 14 44 c8 28 13 95 13 184 -1 157 -12
209 -72 330 -47 95 -90 151 -178 233 -82 76 -215 150 -320 178 -73 19 -251 26
-323 14z"/>
<path d="M3605 1891 c-77 -28 -108 -46 -167 -100 -162 -148 -174 -390 -29
-553 56 -63 122 -105 205 -130 111 -34 266 -17 360 38 20 12 20 13 1 55 -11
24 -28 58 -38 75 l-18 32 -42 -21 c-56 -27 -163 -29 -229 -4 -57 22 -119 89
-136 145 -27 90 -8 169 57 233 75 76 182 97 291 59 30 -11 58 -19 61 -20 3 0
21 32 39 71 34 69 34 71 15 85 -70 52 -272 71 -370 35z"/>
<path d="M2094 1890 c-11 -4 -33 -22 -47 -40 -45 -53 -31 -161 24 -191 67 -35
127 -28 173 20 39 41 46 112 16 159 -32 51 -109 75 -166 52z"/>
<path d="M4039 1871 c-38 -39 -39 -87 -3 -130 47 -56 144 -37 162 32 11 43 4
71 -24 102 -34 37 -95 35 -135 -4z"/>
<path d="M6844 1883 c4 -10 78 -189 166 -398 l159 -380 72 0 72 0 163 390 c90
214 164 393 164 397 0 5 -44 8 -98 8 l-98 0 -99 -260 c-55 -142 -103 -256
-107 -252 -4 4 -45 108 -93 232 -47 124 -90 237 -96 253 -11 27 -12 27 -111
27 -90 0 -99 -2 -94 -17z"/>
<path d="M4504 1593 c-18 -10 -41 -24 -53 -31 -19 -12 -21 -11 -21 13 0 25 -1
25 -85 25 l-85 0 0 -250 0 -250 85 0 85 0 0 159 0 159 35 31 c46 40 92 42 129
5 25 -26 26 -30 27 -163 1 -75 1 -148 0 -163 l-1 -28 86 0 85 0 -3 198 c-3
188 -4 199 -26 230 -49 68 -190 103 -258 65z"/>
<path d="M5020 1601 c-72 -22 -147 -88 -175 -153 -21 -51 -19 -153 4 -203 40
-88 126 -145 232 -153 96 -7 167 17 227 74 l47 46 -60 30 -61 30 -38 -26 c-63
-42 -159 -27 -185 30 -24 54 -26 54 170 54 l181 0 -4 53 c-11 140 -115 228
-263 226 -27 0 -61 -4 -75 -8z m147 -123 c11 -13 23 -31 26 -40 6 -16 -3 -18
-93 -18 -55 0 -100 4 -100 9 0 5 12 23 26 40 22 27 33 31 73 31 37 0 52 -5 68
-22z"/>
<path d="M5650 1597 c-14 -7 -37 -21 -52 -31 l-28 -18 0 26 c0 26 0 26 -85 26
l-85 0 0 -250 0 -250 85 0 85 0 0 164 c0 146 2 166 19 187 28 35 95 33 127 -4
23 -27 24 -34 24 -188 l0 -159 85 0 85 0 0 164 c0 186 6 202 72 213 32 5 41 1
68 -25 l30 -30 0 -161 0 -161 85 0 85 0 0 168 c-1 235 -13 275 -100 320 -78
39 -162 26 -229 -37 l-33 -31 -21 26 c-43 55 -158 82 -217 51z"/>
<path d="M6415 1591 c-52 -23 -103 -74 -126 -126 -23 -51 -25 -171 -4 -222 41
-97 123 -153 225 -153 54 0 130 26 144 49 12 19 26 12 26 -14 0 -25 1 -25 80
-25 l80 0 0 250 0 250 -80 0 c-71 0 -80 -2 -80 -18 0 -28 -11 -34 -31 -16 -48
44 -166 56 -234 25z m199 -136 c111 -53 70 -225 -54 -225 -100 0 -152 114 -88
195 36 46 86 56 142 30z"/>
<path d="M7790 1601 c-73 -23 -147 -88 -176 -156 -41 -100 -3 -237 83 -299 60
-42 97 -54 169 -55 87 -1 158 23 210 71 24 22 44 44 44 47 0 4 -26 20 -59 35
l-58 28 -33 -23 c-24 -18 -44 -24 -87 -24 -49 0 -58 3 -84 33 -16 18 -29 41
-29 52 0 19 7 20 181 20 l181 0 -4 53 c-12 140 -114 228 -263 226 -27 0 -61
-4 -75 -8z m142 -121 c14 -11 28 -29 31 -40 5 -19 1 -20 -89 -20 -86 0 -94 2
-94 19 0 53 103 80 152 41z"/>
<path d="M8430 1599 c-14 -6 -40 -24 -57 -42 l-33 -31 0 37 0 37 -85 0 -85 0
0 -250 0 -250 84 0 85 0 3 154 c3 146 4 156 26 179 30 32 73 40 123 23 l40
-14 35 69 35 70 -35 14 c-40 17 -99 18 -136 4z"/>
<path d="M8725 1598 c-75 -28 -115 -80 -115 -150 0 -59 31 -93 125 -138 59
-28 85 -46 85 -58 0 -47 -52 -54 -125 -17 -55 28 -59 26 -95 -39 -24 -45 -24
-46 -5 -61 32 -24 114 -45 177 -45 132 0 210 46 223 132 14 95 -36 159 -150
192 -57 17 -81 37 -71 62 5 13 17 15 64 11 31 -2 67 -8 79 -12 19 -6 25 0 48
45 14 29 25 53 23 54 -47 30 -209 45 -263 24z"/>
<path d="M9200 1601 c-247 -75 -258 -409 -17 -498 52 -19 160 -16 219 7 45 17
128 82 128 100 0 4 -27 19 -59 35 l-59 28 -27 -21 c-59 -46 -156 -37 -188 17
-36 61 -36 61 164 61 l181 0 -4 53 c-12 140 -114 228 -263 226 -27 0 -61 -4
-75 -8z m142 -121 c14 -11 28 -29 31 -40 5 -19 1 -20 -89 -20 -86 0 -94 2 -94
19 0 53 103 80 152 41z"/>
<path d="M4020 1350 l0 -250 85 0 85 0 0 250 0 250 -85 0 -85 0 0 -250z"/>
<path d="M2441 1533 c-95 -48 -94 -191 2 -236 43 -21 67 -21 111 -3 66 28 95
105 67 179 -23 60 -118 92 -180 60z"/>
<path d="M976 1459 c-51 -14 -96 -71 -96 -124 0 -102 114 -169 201 -118 28 17
69 84 69 114 -1 29 -39 98 -61 110 -37 19 -81 26 -113 18z"/>
<path d="M1300 1092 c-25 -12 -40 -30 -54 -63 -17 -42 -17 -51 -5 -90 20 -63
67 -92 138 -86 45 3 59 9 82 35 102 114 -24 273 -161 204z"/>
</g>
</svg>
